<mxfile host="65bd71144e">
    <diagram id="LFii8BSC-ACRom0oiLSE" name="Page-1">
        <mxGraphModel dx="1342" dy="1767" grid="1" gridSize="10" guides="1" tooltips="1" connect="1" arrows="1" fold="1" page="1" pageScale="1" pageWidth="850" pageHeight="1100" math="0" shadow="0">
            <root>
                <mxCell id="0"/>
                <mxCell id="1" parent="0"/>
                <mxCell id="2" value="" style="rounded=0;whiteSpace=wrap;html=1;" parent="1" vertex="1">
                    <mxGeometry x="10" y="-60" width="780" height="760" as="geometry"/>
                </mxCell>
                <mxCell id="3" value="" style="shape=umlLifeline;perimeter=lifelinePerimeter;whiteSpace=wrap;html=1;container=1;dropTarget=0;collapsible=0;recursiveResize=0;outlineConnect=0;portConstraint=eastwest;newEdgeStyle={&quot;curved&quot;:0,&quot;rounded&quot;:0};participant=umlActor;" parent="1" vertex="1">
                    <mxGeometry x="110" y="90" width="20" height="600" as="geometry"/>
                </mxCell>
                <mxCell id="7" value="" style="html=1;points=[[0,0,0,0,5],[0,1,0,0,-5],[1,0,0,0,5],[1,1,0,0,-5]];perimeter=orthogonalPerimeter;outlineConnect=0;targetShapes=umlLifeline;portConstraint=eastwest;newEdgeStyle={&quot;curved&quot;:0,&quot;rounded&quot;:0};" parent="3" vertex="1">
                    <mxGeometry x="5" y="70" width="10" height="500" as="geometry"/>
                </mxCell>
                <mxCell id="4" value="Interface" style="shape=umlLifeline;perimeter=lifelinePerimeter;whiteSpace=wrap;html=1;container=1;dropTarget=0;collapsible=0;recursiveResize=0;outlineConnect=0;portConstraint=eastwest;newEdgeStyle={&quot;curved&quot;:0,&quot;rounded&quot;:0};" parent="1" vertex="1">
                    <mxGeometry x="310" y="90" width="100" height="600" as="geometry"/>
                </mxCell>
                <mxCell id="8" value="" style="html=1;points=[[0,0,0,0,5],[0,1,0,0,-5],[1,0,0,0,5],[1,1,0,0,-5]];perimeter=orthogonalPerimeter;outlineConnect=0;targetShapes=umlLifeline;portConstraint=eastwest;newEdgeStyle={&quot;curved&quot;:0,&quot;rounded&quot;:0};" parent="4" vertex="1">
                    <mxGeometry x="45" y="70" width="10" height="500" as="geometry"/>
                </mxCell>
                <mxCell id="5" value="System" style="shape=umlLifeline;perimeter=lifelinePerimeter;whiteSpace=wrap;html=1;container=1;dropTarget=0;collapsible=0;recursiveResize=0;outlineConnect=0;portConstraint=eastwest;newEdgeStyle={&quot;curved&quot;:0,&quot;rounded&quot;:0};" parent="1" vertex="1">
                    <mxGeometry x="560" y="90" width="100" height="600" as="geometry"/>
                </mxCell>
                <mxCell id="9" value="" style="html=1;points=[[0,0,0,0,5],[0,1,0,0,-5],[1,0,0,0,5],[1,1,0,0,-5]];perimeter=orthogonalPerimeter;outlineConnect=0;targetShapes=umlLifeline;portConstraint=eastwest;newEdgeStyle={&quot;curved&quot;:0,&quot;rounded&quot;:0};" parent="5" vertex="1">
                    <mxGeometry x="45" y="70" width="10" height="500" as="geometry"/>
                </mxCell>
                <mxCell id="10" value="" style="html=1;verticalAlign=bottom;labelBackgroundColor=none;endArrow=block;endFill=1;" parent="1" target="8" edge="1">
                    <mxGeometry width="160" relative="1" as="geometry">
                        <mxPoint x="130" y="200" as="sourcePoint"/>
                        <mxPoint x="290" y="200" as="targetPoint"/>
                    </mxGeometry>
                </mxCell>
                <mxCell id="11" value="click&amp;nbsp; VNPay" style="edgeLabel;html=1;align=center;verticalAlign=middle;resizable=0;points=[];" parent="10" vertex="1" connectable="0">
                    <mxGeometry x="-0.2111" y="3" relative="1" as="geometry">
                        <mxPoint x="9" as="offset"/>
                    </mxGeometry>
                </mxCell>
                <mxCell id="12" value="alt" style="shape=umlFrame;whiteSpace=wrap;html=1;pointerEvents=0;recursiveResize=0;container=1;collapsible=0;width=50;" vertex="1" parent="1">
                    <mxGeometry x="40" y="180" width="670" height="430" as="geometry"/>
                </mxCell>
                <mxCell id="29" value="" style="html=1;verticalAlign=bottom;labelBackgroundColor=none;endArrow=block;endFill=1;dashed=1;" edge="1" parent="12">
                    <mxGeometry width="160" relative="1" as="geometry">
                        <mxPoint x="315" y="170" as="sourcePoint"/>
                        <mxPoint x="85" y="170" as="targetPoint"/>
                        <Array as="points">
                            <mxPoint x="260" y="170"/>
                        </Array>
                    </mxGeometry>
                </mxCell>
                <mxCell id="30" value="return result" style="edgeLabel;html=1;align=center;verticalAlign=middle;resizable=0;points=[];" vertex="1" connectable="0" parent="29">
                    <mxGeometry x="0.3706" y="2" relative="1" as="geometry">
                        <mxPoint x="39" y="-2" as="offset"/>
                    </mxGeometry>
                </mxCell>
                <mxCell id="31" value="" style="html=1;verticalAlign=bottom;labelBackgroundColor=none;endArrow=block;endFill=1;" edge="1" parent="12">
                    <mxGeometry width="160" relative="1" as="geometry">
                        <mxPoint x="90" y="230" as="sourcePoint"/>
                        <mxPoint x="315" y="230" as="targetPoint"/>
                    </mxGeometry>
                </mxCell>
                <mxCell id="32" value="click COD" style="edgeLabel;html=1;align=center;verticalAlign=middle;resizable=0;points=[];" vertex="1" connectable="0" parent="31">
                    <mxGeometry x="-0.2111" y="3" relative="1" as="geometry">
                        <mxPoint x="9" as="offset"/>
                    </mxGeometry>
                </mxCell>
                <mxCell id="41" value="" style="html=1;verticalAlign=bottom;labelBackgroundColor=none;endArrow=block;endFill=1;dashed=1;" edge="1" parent="12">
                    <mxGeometry width="160" relative="1" as="geometry">
                        <mxPoint x="320" y="360" as="sourcePoint"/>
                        <mxPoint x="90" y="360" as="targetPoint"/>
                        <Array as="points">
                            <mxPoint x="265" y="360"/>
                        </Array>
                    </mxGeometry>
                </mxCell>
                <mxCell id="42" value="return result" style="edgeLabel;html=1;align=center;verticalAlign=middle;resizable=0;points=[];" vertex="1" connectable="0" parent="41">
                    <mxGeometry x="0.3706" y="2" relative="1" as="geometry">
                        <mxPoint x="39" y="-2" as="offset"/>
                    </mxGeometry>
                </mxCell>
                <mxCell id="14" value="" style="html=1;verticalAlign=bottom;labelBackgroundColor=none;endArrow=block;endFill=1;" edge="1" parent="1">
                    <mxGeometry width="160" relative="1" as="geometry">
                        <mxPoint x="365" y="250" as="sourcePoint"/>
                        <mxPoint x="605" y="250" as="targetPoint"/>
                    </mxGeometry>
                </mxCell>
                <mxCell id="15" value="gửi yêu cầu" style="edgeLabel;html=1;align=center;verticalAlign=middle;resizable=0;points=[];" vertex="1" connectable="0" parent="14">
                    <mxGeometry x="-0.2111" y="3" relative="1" as="geometry">
                        <mxPoint x="20" y="3" as="offset"/>
                    </mxGeometry>
                </mxCell>
                <mxCell id="25" value="" style="html=1;verticalAlign=bottom;labelBackgroundColor=none;endArrow=block;endFill=1;dashed=1;" edge="1" parent="1" source="9" target="8">
                    <mxGeometry width="160" relative="1" as="geometry">
                        <mxPoint x="380" y="410" as="sourcePoint"/>
                        <mxPoint x="540" y="410" as="targetPoint"/>
                        <Array as="points">
                            <mxPoint x="550" y="300"/>
                        </Array>
                    </mxGeometry>
                </mxCell>
                <mxCell id="26" value="redirect to VNPay" style="edgeLabel;html=1;align=center;verticalAlign=middle;resizable=0;points=[];" vertex="1" connectable="0" parent="25">
                    <mxGeometry x="0.3706" y="2" relative="1" as="geometry">
                        <mxPoint x="39" y="-2" as="offset"/>
                    </mxGeometry>
                </mxCell>
                <mxCell id="33" value="" style="html=1;verticalAlign=bottom;labelBackgroundColor=none;endArrow=block;endFill=1;" edge="1" parent="1" source="8" target="9">
                    <mxGeometry width="160" relative="1" as="geometry">
                        <mxPoint x="370" y="510" as="sourcePoint"/>
                        <mxPoint x="590" y="510" as="targetPoint"/>
                        <Array as="points">
                            <mxPoint x="530" y="450"/>
                        </Array>
                    </mxGeometry>
                </mxCell>
                <mxCell id="34" value="gửi yêu cầu" style="edgeLabel;html=1;align=center;verticalAlign=middle;resizable=0;points=[];" vertex="1" connectable="0" parent="33">
                    <mxGeometry x="-0.2111" y="3" relative="1" as="geometry">
                        <mxPoint x="20" y="3" as="offset"/>
                    </mxGeometry>
                </mxCell>
                <mxCell id="36" value="" style="html=1;verticalAlign=bottom;labelBackgroundColor=none;endArrow=block;endFill=1;dashed=1;" edge="1" parent="1" source="9" target="8">
                    <mxGeometry width="160" relative="1" as="geometry">
                        <mxPoint x="600" y="500" as="sourcePoint"/>
                        <mxPoint x="380" y="500" as="targetPoint"/>
                        <Array as="points">
                            <mxPoint x="535" y="500"/>
                        </Array>
                    </mxGeometry>
                </mxCell>
                <mxCell id="37" value="Xác nhận đơn hàng" style="edgeLabel;html=1;align=center;verticalAlign=middle;resizable=0;points=[];" vertex="1" connectable="0" parent="36">
                    <mxGeometry x="0.3706" y="2" relative="1" as="geometry">
                        <mxPoint x="39" y="-2" as="offset"/>
                    </mxGeometry>
                </mxCell>
                <mxCell id="43" value="" style="endArrow=none;dashed=1;html=1;dashPattern=1 3;strokeWidth=2;entryX=1.001;entryY=0.546;entryDx=0;entryDy=0;entryPerimeter=0;exitX=0.003;exitY=0.45;exitDx=0;exitDy=0;exitPerimeter=0;" edge="1" parent="1" source="12" target="12">
                    <mxGeometry width="50" height="50" relative="1" as="geometry">
                        <mxPoint x="50" y="380" as="sourcePoint"/>
                        <mxPoint x="100" y="330" as="targetPoint"/>
                    </mxGeometry>
                </mxCell>
            </root>
        </mxGraphModel>
    </diagram>
</mxfile>